<svg xmlns="http://www.w3.org/2000/svg" xmlns:xlink="http://www.w3.org/1999/xlink" viewBox="0 0 312.8 71.7" xmlns:v="https://vecta.io/nano"><path d="M.1 7.9C0 3.7 3.7-.1 7.9 0h38.2c3.9 0 7.4 3.1 7.8 7 .3 4.3 0 8.7.1 13 0 4.9.5 9.8-.5 14.6-.8 3.4-4.2 5.3-7.4 5.3-8.7.4-17.4 0-26 .1-2.6 0-5.3-.1-7.9.1C8 43.8 4.3 48 .2 51.8-.1 37.2 0 22.5.1 7.9z" fill="#2196f3"/><path d="M54 20c4 .1 7.9-.4 11.9.3 3.9.8 6.4 4.8 6.1 8.6l-.1 42.8c-4.2-3.7-7.7-8-12-11.6-10.6-.4-21.3.1-32-.2-3.9.1-7.5-3.1-7.8-6.9-.4-4.3 0-8.7-.1-13 8.7-.1 17.4.3 26-.1 3.3 0 6.7-1.9 7.4-5.3 1.1-4.8.6-9.7.6-14.6z" fill="#1565c0"/><path d="M109.2 29.4h-9.5l-1.6 4.5h-5l8.5-23.8h5.5l8.5 23.8h-5l-1.4-4.5zm-4.8-13.8l-3.4 9.9h6.9l-3.5-9.9zm14.6-5.4h4.8v23.7H119V10.2zm20.4 23.9c-6.7 0-12.2-5-12.2-12.2 0-7.1 5.5-12.1 12.2-12.1 6.8 0 12.1 5 12.1 12.1.1 7.2-5.4 12.2-12.1 12.2zm0-4.2c4.3 0 7.2-3.1 7.2-7.9s-3-7.9-7.2-7.9c-4.3 0-7.3 3-7.3 7.9 0 4.8 3 7.9 7.3 7.9zm34.7-20c5.3 0 9.6 2.8 11.2 7.7h-5.5c-1.1-2.3-3.2-3.4-5.7-3.4-4.1 0-7.1 3-7.1 7.9 0 4.8 3 7.9 7.1 7.9 2.5 0 4.6-1.1 5.7-3.4h5.5c-1.6 4.9-5.9 7.7-11.2 7.7-6.8 0-12-5-12-12.1-.1-7.3 5.1-12.3 12-12.3zm23.6 24.3c-5.4 0-9.6-3.8-9.6-9.7s4.2-9.7 9.7-9.7 9.7 3.8 9.7 9.7-4.4 9.7-9.8 9.7zm0-4.1c2.5 0 4.9-1.8 4.9-5.6s-2.3-5.6-4.9-5.6-4.8 1.8-4.8 5.6c0 3.7 2.2 5.6 4.8 5.6zm26.5-6.6c0-3-1.7-4.7-4.2-4.7-2.6 0-4.2 1.6-4.2 4.7v10.4H211V15.1h4.8v2.3c1.2-1.6 3.3-2.6 5.7-2.6 4.4 0 7.5 2.9 7.5 8.1v11h-4.8V23.5zm10-4.5H232v-3.9h2.2v-4.7h4.8v4.7h4.2V19H239v9.1c0 1.3.5 1.8 2 1.8h2.2v4h-3c-3.6 0-6-1.5-6-5.8V19zm19.8-4.2c3 0 5.1 1.4 6.2 3v-2.7h4.8v18.8h-4.8v-2.8c-1.1 1.6-3.3 3.1-6.3 3.1-4.8 0-8.6-3.9-8.6-9.8s3.9-9.6 8.7-9.6zm1.3 4.1c-2.5 0-5 1.9-5 5.5s2.4 5.6 5 5.6 5-2 5-5.5c0-3.6-2.4-5.6-5-5.6zm22.5-4.1c4.7 0 7.9 2.4 8.9 6.7h-5.1c-.5-1.6-1.8-2.6-3.8-2.6-2.7 0-4.4 2-4.4 5.7s1.8 5.6 4.4 5.6c2 0 3.2-.9 3.8-2.6h5.1c-1 4-4.2 6.7-8.9 6.7-5.4 0-9.3-3.8-9.3-9.7s3.9-9.8 9.3-9.8zm13.1 4.2h-2.2v-3.9h2.2v-4.7h4.8v4.7h4.2V19h-4.2v9.1c0 1.3.5 1.8 2 1.8h2.2v4h-3c-3.6 0-6-1.5-6-5.8V19z" fill="#333"/><g fill="#2196f3"><use xlink:href="#B"/><path d="M102.2 46.2h2.8v5.1c.7-.9 2-1.5 3.4-1.5 2.5 0 4.3 1.7 4.3 4.7V61h-2.8v-6.1c0-1.8-1-2.7-2.5-2.7s-2.5 1-2.5 2.7V61h-2.8V46.2zm17.5 3.5c1.8 0 3 .8 3.7 1.8v-1.6h2.8V61h-2.8v-1.6c-.7 1-1.9 1.8-3.7 1.8-2.8 0-5-2.3-5-5.8 0-3.4 2.2-5.7 5-5.7zm.7 2.5c-1.5 0-2.9 1.1-2.9 3.2s1.4 3.3 2.9 3.3 2.9-1.2 2.9-3.3c.1-2-1.3-3.2-2.9-3.2z"/><use xlink:href="#B" x="34.6"/><path d="M136.1 52.1l1.1-5h2.9l-2.2 5h-1.8zm10.3 9.1c-2.8 0-4.7-1.6-4.8-3.7h2.8c.1.8.9 1.5 2 1.5s1.7-.5 1.7-1.1c0-2-6.3-.7-6.3-4.8 0-1.8 1.6-3.3 4.4-3.3 2.7 0 4.3 1.5 4.5 3.7H148c-.1-.9-.8-1.4-1.9-1.4-1 0-1.6.4-1.6 1.1 0 2 6.1.8 6.2 4.8.1 1.7-1.6 3.2-4.3 3.2zm15.8-11.5c1.8 0 3 .8 3.7 1.8v-1.6h2.8V61h-2.8v-1.6c-.7 1-1.9 1.8-3.7 1.8-2.8 0-5-2.3-5-5.8-.1-3.4 2.2-5.7 5-5.7zm.7 2.5c-1.5 0-2.9 1.1-2.9 3.2s1.4 3.3 2.9 3.3 2.9-1.2 2.9-3.3c.1-2-1.3-3.2-2.9-3.2zm8.5-6h2.8V61h-2.8V46.2zm5.6 0h2.8V61H177V46.2zm17.9 3.7h3L191 66.2h-3l2.4-5.5-4.4-10.8h3.1l2.9 7.7 2.9-7.7zm9.4 11.3c-3.2 0-5.6-2.2-5.6-5.7s2.5-5.7 5.7-5.7 5.7 2.2 5.7 5.7c0 3.4-2.6 5.7-5.8 5.7zm0-2.5c1.5 0 2.9-1.1 2.9-3.3s-1.4-3.3-2.9-3.3-2.8 1.1-2.8 3.3c0 2.3 1.3 3.3 2.8 3.3zm18.3 2.3h-2.8v-1.4c-.7.9-1.9 1.5-3.3 1.5-2.6 0-4.4-1.7-4.4-4.7v-6.5h2.8V56c0 1.8 1 2.7 2.5 2.7s2.5-1 2.5-2.7v-6.1h2.8V61zm15.3-6.1c0-1.8-1-2.7-2.5-2.7s-2.5 1-2.5 2.7V61h-2.8V49.9h2.8v1.4c.7-.9 1.9-1.5 3.3-1.5 2.6 0 4.4 1.7 4.4 4.7V61h-2.8v-6.1zm10.3 6.3c-3.2 0-5.6-2.2-5.6-5.7s2.3-5.7 5.6-5.7c3.2 0 5.5 2.2 5.5 5.5 0 .4 0 .7-.1 1.1h-8.1c.1 1.6 1.3 2.6 2.7 2.6 1.2 0 1.9-.6 2.2-1.3h3c-.6 1.9-2.5 3.5-5.2 3.5zm-2.7-6.8h5.3c0-1.5-1.2-2.4-2.6-2.4s-2.5.9-2.7 2.4zm15 6.8c-3.2 0-5.6-2.2-5.6-5.7s2.3-5.7 5.6-5.7c3.2 0 5.5 2.2 5.5 5.5 0 .4 0 .7-.1 1.1h-8.1c.1 1.6 1.3 2.6 2.7 2.6 1.2 0 1.9-.6 2.2-1.3h3c-.6 1.9-2.4 3.5-5.2 3.5zm-2.7-6.8h5.3c0-1.5-1.2-2.4-2.6-2.4s-2.4.9-2.7 2.4zm14.6-4.7c1.5 0 2.9.7 3.6 1.7v-5.3h2.8V61H276v-1.6c-.7 1-1.9 1.8-3.6 1.8-2.8 0-5.1-2.3-5.1-5.8 0-3.4 2.3-5.7 5.1-5.7zm.7 2.5c-1.5 0-2.9 1.1-2.9 3.2s1.4 3.3 2.9 3.3 2.9-1.2 2.9-3.3c0-2-1.4-3.2-2.9-3.2z"/></g><defs ><path id="B" d="M94.8 52.2h-1.3v-2.3h1.3v-2.7h2.8v2.7h2.5v2.3h-2.5v5.4c0 .7.3 1.1 1.2 1.1h1.3V61h-1.8c-2.1 0-3.5-.9-3.5-3.4v-5.4z"/></defs></svg>